<svg width="500" height="94" viewBox="0 0 500 94" fill="none" xmlns="http://www.w3.org/2000/svg">
<path d="M202.337 93.1022C194.999 93.1022 188.471 91.5662 182.753 88.4942C177.121 85.4222 172.641 81.2409 169.313 75.9502C166.071 70.5742 164.449 64.4729 164.449 57.6462C164.449 50.7342 166.071 44.6329 169.313 39.3422C172.641 33.9662 177.121 29.7849 182.753 26.7982C188.471 23.7262 194.999 22.1902 202.337 22.1902C209.591 22.1902 216.076 23.7262 221.793 26.7982C227.511 29.7849 231.991 33.9235 235.233 39.2142C238.476 44.5049 240.097 50.6489 240.097 57.6462C240.097 64.4729 238.476 70.5742 235.233 75.9502C231.991 81.2409 227.511 85.4222 221.793 88.4942C216.076 91.5662 209.591 93.1022 202.337 93.1022ZM202.337 76.7182C205.665 76.7182 208.652 75.9502 211.297 74.4142C213.943 72.8782 216.033 70.7022 217.569 67.8862C219.105 64.9849 219.873 61.5715 219.873 57.6462C219.873 53.6355 219.105 50.2222 217.569 47.4062C216.033 44.5902 213.943 42.4142 211.297 40.8782C208.652 39.3422 205.665 38.5742 202.337 38.5742C199.009 38.5742 196.023 39.3422 193.377 40.8782C190.732 42.4142 188.599 44.5902 186.977 47.4062C185.441 50.2222 184.673 53.6355 184.673 57.6462C184.673 61.5715 185.441 64.9849 186.977 67.8862C188.599 70.7022 190.732 72.8782 193.377 74.4142C196.023 75.9502 199.009 76.7182 202.337 76.7182Z" fill="black"/>
<path d="M128.117 93.1022C120.266 93.1022 113.354 91.5662 107.381 88.4942C101.493 85.4222 96.9272 81.2409 93.6845 75.9502C90.4418 70.5742 88.8205 64.4729 88.8205 57.6462C88.8205 50.7342 90.3992 44.6329 93.5565 39.3422C96.7992 33.9662 101.194 29.7849 106.741 26.7982C112.287 23.7262 118.559 22.1902 125.557 22.1902C132.298 22.1902 138.356 23.6409 143.732 26.5422C149.194 29.3582 153.503 33.4542 156.661 38.8302C159.818 44.1209 161.396 50.4782 161.396 57.9022C161.396 58.6702 161.354 59.5662 161.269 60.5902C161.183 61.5289 161.098 62.4249 161.012 63.2782H105.076V51.6302H150.516L142.837 55.0862C142.837 51.5022 142.111 48.3875 140.66 45.7422C139.21 43.0969 137.205 41.0489 134.645 39.5982C132.085 38.0622 129.098 37.2942 125.685 37.2942C122.271 37.2942 119.242 38.0622 116.597 39.5982C114.037 41.0489 112.031 43.1395 110.581 45.8702C109.13 48.5155 108.405 51.6729 108.405 55.3422V58.4142C108.405 62.1689 109.215 65.4969 110.837 68.3982C112.543 71.2142 114.89 73.3902 117.877 74.9262C120.949 76.3769 124.532 77.1022 128.628 77.1022C132.298 77.1022 135.498 76.5475 138.229 75.4382C141.045 74.3289 143.604 72.6649 145.908 70.4462L156.533 81.9662C153.375 85.5502 149.407 88.3235 144.628 90.2862C139.85 92.1635 134.346 93.1022 128.117 93.1022Z" fill="black"/>
<path d="M48.9819 93.6144C41.8993 93.6144 35.3713 92.5051 29.3979 90.2864C23.5099 87.9824 18.3473 84.7397 13.9099 80.5584C9.55794 76.377 6.1446 71.4704 3.66994 65.8384C1.2806 60.2064 0.0859375 54.0197 0.0859375 47.2784C0.0859375 40.537 1.2806 34.3504 3.66994 28.7184C6.1446 23.0864 9.6006 18.1797 14.0379 13.9984C18.4753 9.81705 23.6806 6.61705 29.6539 4.39838C35.6273 2.09438 42.1979 0.942383 49.3659 0.942383C57.3019 0.942383 64.4273 2.26505 70.7419 4.91038C77.1419 7.55571 82.5179 11.3957 86.8699 16.4304L73.5579 28.7184C70.3153 25.305 66.7739 22.7877 62.9339 21.1664C59.0939 19.4597 54.9126 18.6064 50.3899 18.6064C46.0379 18.6064 42.0699 19.289 38.4859 20.6544C34.9019 22.0197 31.7873 23.9824 29.1419 26.5424C26.5819 29.1024 24.5766 32.1317 23.1259 35.6304C21.7606 39.1291 21.0779 43.0117 21.0779 47.2784C21.0779 51.4597 21.7606 55.2997 23.1259 58.7984C24.5766 62.2971 26.5819 65.369 29.1419 68.0144C31.7873 70.5744 34.8593 72.537 38.3579 73.9024C41.9419 75.2677 45.8673 75.9504 50.1339 75.9504C54.2299 75.9504 58.1979 75.3104 62.0379 74.0304C65.9633 72.665 69.7606 70.4037 73.4299 67.2464L85.2059 82.2224C80.3419 85.8917 74.6673 88.7077 68.1819 90.6704C61.7819 92.6331 55.3819 93.6144 48.9819 93.6144ZM66.2619 79.5344V45.8704H85.2059V82.2224L66.2619 79.5344Z" fill="black"/>
<path d="M51.4143 45.0786H85.2266V56.6343L66.2619 59.3762L51.4143 45.0786Z" fill="black"/>
<path d="M336.682 91.4853L298.026 1.88525H320.426L354.218 81.2453H341.034L375.338 1.88525H395.946L357.162 91.4853H336.682Z" fill="black"/>
<path d="M398.307 91.4853V1.88525H415.459L453.603 65.1173H444.515L482.019 1.88525H499.043L499.299 91.4853H479.843L479.715 31.7093H483.299L453.347 82.0133H444.003L413.411 31.7093H417.763V91.4853H398.307Z" fill="black"/>
<path d="M275.037 76.3579C279.133 76.3579 282.418 75.9739 284.893 75.2059C287.453 74.3525 289.33 73.2005 290.525 71.7499C291.719 70.2992 292.317 68.6352 292.317 66.7579C292.317 64.3685 291.378 62.4912 289.501 61.1259C287.623 59.6752 285.149 59.5232 282.077 58.6699C279.005 57.7312 275.591 56.8779 271.837 56.1099C268.167 55.2565 264.455 54.2325 260.701 53.0379C257.031 51.8432 253.661 50.3072 250.589 48.4299C247.517 46.5525 244.999 43.0779 243.037 40.0059C241.159 36.9339 240.221 33.0085 240.221 28.2299C240.221 23.1099 241.586 20.4592 244.317 16.2779C247.133 12.0112 250.314 8.64052 255.861 6.16586C261.493 3.60586 269.651 1.88525 278.099 1.88525H293.618L301.2 18.9659H277.853C273.842 18.9659 270.557 19.4352 267.997 20.3739C265.437 21.3125 263.391 22.3411 262.281 23.8771C261.172 25.3277 260.829 25.872 260.829 27.8347C260.829 30.1387 261.767 32.3872 263.645 33.8379C265.522 35.2032 267.997 36.3125 271.069 37.1659C274.141 38.0192 277.511 38.8725 281.181 39.7259C284.935 40.5792 288.647 41.5605 292.317 42.6699C296.071 43.7792 299.485 44.2725 302.557 46.1499C305.629 48.0272 308.103 50.5019 309.981 53.5739C311.943 56.6459 312.925 60.5285 312.925 65.2219C312.925 70.2565 311.517 74.8645 308.701 79.0459C305.885 83.2272 302.661 86.5979 297.029 89.1579C291.482 91.7179 283.442 92.9979 274.909 92.9979H250.174L243.174 76.3579H275.037Z" fill="black"/>
</svg>
