<svg width="521" height="284" viewBox="0 0 521 284" fill="none" xmlns="http://www.w3.org/2000/svg">
<circle cx="142.157" cy="141.988" r="141.431" fill="#00D5BE"/>
<path d="M71.0459 95.5591C78.9818 95.5591 86.1073 96.8825 92.4219 99.5278C98.8217 102.173 104.198 106.013 108.55 111.047L95.2373 123.335C91.9947 119.922 88.4532 117.405 84.6133 115.784C80.7733 114.077 76.5919 113.223 72.0693 113.223C67.7175 113.223 63.7499 113.907 60.166 115.272C56.582 116.637 53.4666 118.6 50.8213 121.16C48.2614 123.72 46.2563 126.749 44.8057 130.248C43.4403 133.746 42.7578 137.629 42.7578 141.896C42.7579 146.077 43.4404 149.917 44.8057 153.416C46.2563 156.914 48.2614 159.986 50.8213 162.631C53.4666 165.191 56.5394 167.155 60.0381 168.52C63.6219 169.885 67.5471 170.568 71.8135 170.568C75.9095 170.568 79.8778 169.928 83.7178 168.648C85.1428 168.152 86.5501 167.537 87.9414 166.805V153.994L73.0938 139.696H106.906V151.251L106.886 151.254V176.839L105.964 177.517C101.309 180.857 95.9413 183.448 89.8613 185.288C83.4616 187.25 77.0619 188.232 70.6621 188.232C63.5794 188.232 57.0505 187.122 51.0771 184.904C45.1893 182.6 40.0271 179.357 35.5898 175.175C31.2379 170.994 27.8243 166.088 25.3496 160.456C22.9603 154.824 21.7657 148.637 21.7656 141.896C21.7656 135.155 22.9603 128.967 25.3496 123.335C27.8243 117.703 31.2805 112.797 35.7178 108.616C40.1551 104.434 45.3607 101.234 51.334 99.0151C57.3072 96.7113 63.8781 95.5591 71.0459 95.5591ZM147.236 116.807C153.978 116.807 160.036 118.258 165.412 121.16C170.873 123.976 175.183 128.072 178.34 133.448C181.497 138.738 183.076 145.095 183.076 152.519C183.076 153.287 183.034 154.184 182.948 155.208C182.863 156.146 182.778 157.042 182.692 157.895H130.591C130.993 159.728 131.634 161.435 132.517 163.015C134.223 165.831 136.57 168.007 139.557 169.543C142.629 170.994 146.213 171.719 150.309 171.719C153.978 171.719 157.178 171.164 159.908 170.055C162.724 168.946 165.284 167.282 167.588 165.063L178.212 176.583C175.055 180.167 171.087 182.941 166.309 184.904C161.53 186.781 156.025 187.719 149.796 187.719C141.946 187.719 135.034 186.184 129.061 183.112C123.173 180.04 118.607 175.858 115.364 170.568C112.122 165.192 110.5 159.09 110.5 152.263C110.5 145.351 112.079 139.25 115.236 133.959C118.479 128.584 122.873 124.402 128.42 121.416C133.967 118.344 140.239 116.807 147.236 116.807ZM224.018 116.807C231.271 116.807 237.756 118.344 243.473 121.416C249.19 124.402 253.67 128.541 256.913 133.832C260.156 139.122 261.777 145.266 261.777 152.263C261.777 159.09 260.156 165.192 256.913 170.568C253.67 175.858 249.19 180.04 243.473 183.112C237.756 186.184 231.27 187.719 224.018 187.719C216.679 187.719 210.151 186.184 204.434 183.112C198.802 180.04 194.321 175.858 190.993 170.568C187.75 165.192 186.129 159.09 186.129 152.263C186.129 145.351 187.751 139.25 190.993 133.959C194.321 128.583 198.802 124.402 204.434 121.416C210.151 118.344 216.679 116.807 224.018 116.807ZM322.88 113.583H299.532C295.522 113.584 292.237 114.052 289.677 114.991C287.117 115.929 285.07 116.959 283.961 118.495C282.852 119.945 282.509 120.489 282.509 122.452C282.509 124.756 283.447 127.004 285.324 128.455C287.201 129.82 289.676 130.929 292.748 131.783C295.82 132.636 299.191 133.49 302.86 134.343C306.615 135.197 310.327 136.177 313.996 137.287C317.751 138.396 321.164 138.89 324.236 140.767C327.308 142.644 329.783 145.119 331.66 148.191C333.623 151.263 334.604 155.146 334.604 159.839C334.604 164.874 333.197 169.481 330.381 173.663C327.565 177.844 324.34 181.215 318.708 183.775C313.161 186.335 305.122 187.615 296.589 187.615H271.854L264.854 170.975H296.717C300.813 170.975 304.098 170.591 306.572 169.823C309.132 168.969 311.009 167.817 312.204 166.367C313.399 164.916 313.996 163.253 313.996 161.375C313.996 158.986 313.058 157.108 311.181 155.743C309.303 154.292 306.829 154.14 303.757 153.287C300.685 152.348 297.271 151.495 293.517 150.727C289.847 149.874 286.135 148.849 282.381 147.655C278.712 146.46 275.34 144.925 272.269 143.047C269.197 141.17 266.679 137.695 264.717 134.624C262.839 131.552 261.9 127.626 261.9 122.847C261.9 117.727 263.265 115.076 265.996 110.895C268.812 106.628 271.994 103.257 277.54 100.783C283.172 98.2227 291.33 96.5025 299.778 96.5024H315.298L322.88 113.583ZM369.355 160.497L397.019 96.5024H417.626L378.842 186.102H358.362L319.706 96.5024H342.106L369.355 160.497ZM470.7 152.138L503.699 96.5024H520.723L520.979 186.102H501.523L501.408 132.324L475.027 176.63H465.683L439.443 133.483V186.102H419.987V96.5024H437.139L470.7 152.138ZM224.018 133.191C220.69 133.191 217.702 133.96 215.057 135.496C212.412 137.032 210.278 139.207 208.657 142.023C207.121 144.839 206.354 148.253 206.354 152.263C206.354 156.189 207.121 159.602 208.657 162.503C210.279 165.319 212.411 167.496 215.057 169.032C217.702 170.568 220.69 171.335 224.018 171.335C227.345 171.335 230.332 170.568 232.978 169.032C235.623 167.496 237.713 165.319 239.249 162.503C240.785 159.602 241.553 156.189 241.553 152.263C241.553 148.253 240.785 144.839 239.249 142.023C237.713 139.207 235.623 137.032 232.978 135.496C230.332 133.96 227.345 133.191 224.018 133.191ZM147.364 131.912C143.951 131.912 140.922 132.679 138.276 134.215C135.716 135.666 133.71 137.757 132.26 140.488C131.324 142.194 130.692 144.115 130.36 146.248H164.268C163.944 144.078 163.303 142.116 162.34 140.36C160.889 137.715 158.884 135.666 156.324 134.215C153.764 132.679 150.778 131.912 147.364 131.912Z" fill="#015F79"/>
<path d="M71.0459 95.5601C78.9818 95.5601 86.1073 96.8825 92.4219 99.5278C98.8217 102.173 104.198 106.013 108.55 111.047L95.2373 123.335C91.9947 119.922 88.4532 117.405 84.6133 115.784C80.7733 114.077 76.5919 113.223 72.0693 113.223C67.7175 113.223 63.7499 113.907 60.166 115.272C56.582 116.637 53.4666 118.6 50.8213 121.16C48.2614 123.72 46.2563 126.749 44.8057 130.248C43.4403 133.746 42.7578 137.629 42.7578 141.896C42.7579 146.077 43.4404 149.917 44.8057 153.416C46.2563 156.914 48.2614 159.986 50.8213 162.631C53.4666 165.191 56.5394 167.155 60.0381 168.52C63.6219 169.885 67.5471 170.568 71.8135 170.568C75.9095 170.568 79.8778 169.928 83.7178 168.648C85.1428 168.152 86.5501 167.537 87.9414 166.805V153.994L73.0938 139.696H106.906V151.251L106.886 151.254V176.839L105.964 177.517C101.309 180.857 95.9413 183.448 89.8613 185.288C83.4616 187.25 77.0619 188.232 70.6621 188.232C63.5794 188.232 57.0505 187.122 51.0771 184.904C45.1893 182.6 40.0271 179.357 35.5898 175.175C31.2379 170.994 27.8243 166.088 25.3496 160.456C22.9603 154.824 21.7657 148.637 21.7656 141.896C21.7656 135.155 22.9603 128.967 25.3496 123.335C27.8243 117.703 31.2805 112.797 35.7178 108.616C40.1551 104.434 45.3607 101.234 51.334 99.0151C57.3072 96.7113 63.8781 95.5601 71.0459 95.5601ZM147.236 116.807C153.978 116.807 160.036 118.258 165.412 121.16C170.873 123.976 175.183 128.072 178.34 133.448C181.497 138.738 183.076 145.095 183.076 152.519C183.076 153.287 183.034 154.184 182.948 155.208C182.863 156.146 182.778 157.042 182.692 157.895H130.591C130.993 159.728 131.634 161.435 132.517 163.015C134.223 165.831 136.57 168.007 139.557 169.543C142.629 170.994 146.213 171.719 150.309 171.719C153.978 171.719 157.178 171.164 159.908 170.055C162.724 168.946 165.284 167.282 167.588 165.063L178.212 176.583C175.055 180.167 171.087 182.941 166.309 184.904C161.53 186.781 156.025 187.719 149.796 187.719C141.946 187.719 135.034 186.184 129.061 183.112C123.173 180.04 118.607 175.858 115.364 170.568C112.122 165.192 110.5 159.09 110.5 152.263C110.5 145.351 112.079 139.25 115.236 133.959C118.479 128.584 122.873 124.402 128.42 121.416C133.967 118.344 140.239 116.807 147.236 116.807ZM224.018 116.807C231.271 116.807 237.756 118.344 243.473 121.416C249.19 124.402 253.67 128.541 256.913 133.832C260.156 139.122 261.777 145.266 261.777 152.263C261.777 159.09 260.156 165.192 256.913 170.568C253.67 175.858 249.19 180.04 243.473 183.112C237.756 186.184 231.27 187.719 224.018 187.719C216.679 187.719 210.151 186.184 204.434 183.112C198.802 180.04 194.321 175.858 190.993 170.568C187.75 165.192 186.129 159.09 186.129 152.263C186.129 145.351 187.751 139.25 190.993 133.959C194.321 128.583 198.802 124.402 204.434 121.416C210.151 118.344 216.679 116.807 224.018 116.807ZM224.018 133.191C220.69 133.191 217.702 133.96 215.057 135.496C212.412 137.032 210.278 139.207 208.657 142.023C207.121 144.839 206.354 148.253 206.354 152.263C206.354 156.189 207.121 159.602 208.657 162.503C210.279 165.319 212.411 167.496 215.057 169.032C217.702 170.568 220.69 171.335 224.018 171.335C227.345 171.335 230.332 170.568 232.978 169.032C235.623 167.496 237.713 165.319 239.249 162.503C240.785 159.602 241.553 156.189 241.553 152.263C241.553 148.253 240.785 144.839 239.249 142.023C237.713 139.207 235.623 137.032 232.978 135.496C230.332 133.96 227.345 133.191 224.018 133.191ZM147.364 131.912C143.951 131.912 140.922 132.679 138.276 134.215C135.716 135.666 133.71 137.757 132.26 140.488C131.324 142.194 130.692 144.115 130.36 146.248H164.268C163.944 144.078 163.303 142.116 162.34 140.36C160.889 137.715 158.884 135.666 156.324 134.215C153.764 132.679 150.778 131.912 147.364 131.912Z" fill="#015F79"/>
</svg>
