<svg width="500" height="94" viewBox="0 0 500 94" fill="none" xmlns="http://www.w3.org/2000/svg">
<path d="M202.337 93.1003C194.999 93.1003 188.471 91.5642 182.753 88.4922C177.121 85.4202 172.641 81.2389 169.313 75.9482C166.071 70.5722 164.449 64.4709 164.449 57.6442C164.449 50.7322 166.071 44.6309 169.313 39.3402C172.641 33.9642 177.121 29.7829 182.753 26.7962C188.471 23.7242 194.999 22.1882 202.337 22.1882C209.591 22.1882 216.076 23.7242 221.793 26.7962C227.511 29.7829 231.991 33.9216 235.233 39.2122C238.476 44.5029 240.097 50.6469 240.097 57.6442C240.097 64.4709 238.476 70.5722 235.233 75.9482C231.991 81.2389 227.511 85.4202 221.793 88.4922C216.076 91.5642 209.591 93.1003 202.337 93.1003ZM202.337 76.7162C205.665 76.7162 208.652 75.9482 211.297 74.4122C213.943 72.8762 216.033 70.7002 217.569 67.8842C219.105 64.9829 219.873 61.5696 219.873 57.6442C219.873 53.6336 219.105 50.2203 217.569 47.4043C216.033 44.5882 213.943 42.4122 211.297 40.8763C208.652 39.3403 205.665 38.5723 202.337 38.5723C199.009 38.5723 196.023 39.3403 193.377 40.8763C190.732 42.4122 188.599 44.5882 186.977 47.4043C185.441 50.2203 184.673 53.6336 184.673 57.6442C184.673 61.5696 185.441 64.9829 186.977 67.8842C188.599 70.7002 190.732 72.8762 193.377 74.4122C196.023 75.9482 199.009 76.7162 202.337 76.7162Z" fill="#00D5BE"/>
<path d="M128.117 93.1003C120.266 93.1003 113.354 91.5642 107.381 88.4922C101.493 85.4202 96.9272 81.2389 93.6845 75.9482C90.4418 70.5722 88.8205 64.4709 88.8205 57.6442C88.8205 50.7322 90.3992 44.6309 93.5565 39.3402C96.7992 33.9642 101.194 29.7829 106.741 26.7962C112.287 23.7242 118.559 22.1882 125.557 22.1882C132.298 22.1882 138.356 23.6389 143.732 26.5402C149.194 29.3562 153.503 33.4522 156.661 38.8282C159.818 44.1189 161.396 50.4762 161.396 57.9002C161.396 58.6682 161.354 59.5642 161.269 60.5882C161.183 61.5269 161.098 62.4229 161.012 63.2762H105.076V51.6283H150.516L142.837 55.0842C142.837 51.5002 142.111 48.3856 140.66 45.7402C139.21 43.0949 137.205 41.0469 134.645 39.5962C132.085 38.0602 129.098 37.2922 125.685 37.2922C122.271 37.2922 119.242 38.0602 116.597 39.5962C114.037 41.0469 112.031 43.1376 110.581 45.8682C109.13 48.5136 108.405 51.6709 108.405 55.3402V58.4122C108.405 62.1669 109.215 65.4949 110.837 68.3962C112.543 71.2122 114.89 73.3882 117.877 74.9242C120.949 76.3749 124.532 77.1003 128.628 77.1003C132.298 77.1003 135.498 76.5456 138.229 75.4362C141.045 74.3269 143.604 72.6629 145.908 70.4442L156.533 81.9642C153.375 85.5482 149.407 88.3216 144.628 90.2842C139.85 92.1616 134.346 93.1003 128.117 93.1003Z" fill="#00D5BE"/>
<path d="M48.9819 93.6124C41.8993 93.6124 35.3713 92.5031 29.3979 90.2844C23.5099 87.9804 18.3473 84.7378 13.9099 80.5564C9.55794 76.3751 6.1446 71.4684 3.66994 65.8364C1.2806 60.2044 0.0859375 54.0178 0.0859375 47.2764C0.0859375 40.5351 1.2806 34.3484 3.66994 28.7164C6.1446 23.0844 9.6006 18.1778 14.0379 13.9964C18.4753 9.81509 23.6806 6.61509 29.6539 4.39642C35.6273 2.09243 42.1979 0.94043 49.3659 0.94043C57.3019 0.94043 64.4273 2.26309 70.7419 4.90842C77.1419 7.55376 82.5179 11.3938 86.8699 16.4284L73.5579 28.7164C70.3153 25.3031 66.7739 22.7858 62.9339 21.1644C59.0939 19.4578 54.9126 18.6044 50.3899 18.6044C46.0379 18.6044 42.0699 19.2871 38.4859 20.6524C34.9019 22.0178 31.7873 23.9804 29.1419 26.5404C26.5819 29.1004 24.5766 32.1298 23.1259 35.6284C21.7606 39.1271 21.0779 43.0098 21.0779 47.2764C21.0779 51.4578 21.7606 55.2978 23.1259 58.7964C24.5766 62.2951 26.5819 65.3671 29.1419 68.0124C31.7873 70.5724 34.8593 72.5351 38.3579 73.9004C41.9419 75.2658 45.8673 75.9484 50.1339 75.9484C54.2299 75.9484 58.1979 75.3084 62.0379 74.0284C65.9633 72.6631 69.7606 70.4018 73.4299 67.2444L85.2059 82.2204C80.3419 85.8898 74.6673 88.7058 68.1819 90.6684C61.7819 92.6311 55.3819 93.6124 48.9819 93.6124ZM66.2619 79.5324V45.8684H85.2059V82.2204L66.2619 79.5324Z" fill="#00D5BE"/>
<path d="M51.4143 45.0767H85.2266V56.6323L66.2619 59.3742L51.4143 45.0767Z" fill="#00D5BE"/>
<path d="M336.682 91.4833L298.026 1.8833H320.426L354.218 81.2433H341.034L375.338 1.8833H395.946L357.162 91.4833H336.682Z" fill="#00D5BE"/>
<path d="M398.307 91.4833V1.8833H415.459L453.603 65.1153H444.515L482.019 1.8833H499.043L499.299 91.4833H479.843L479.715 31.7073H483.299L453.347 82.0113H444.003L413.411 31.7073H417.763V91.4833H398.307Z" fill="#00D5BE"/>
<path d="M275.037 76.3559C279.133 76.3559 282.418 75.9719 284.893 75.2039C287.453 74.3506 289.33 73.1986 290.525 71.7479C291.719 70.2972 292.317 68.6332 292.317 66.7559C292.317 64.3666 291.378 62.4892 289.501 61.1239C287.623 59.6732 285.149 59.5212 282.077 58.6679C279.005 57.7292 275.591 56.8759 271.837 56.1079C268.167 55.2546 264.455 54.2306 260.701 53.0359C257.031 51.8412 253.661 50.3052 250.589 48.4279C247.517 46.5506 244.999 43.0759 243.037 40.0039C241.159 36.9319 240.221 33.0066 240.221 28.2279C240.221 23.1079 241.586 20.4572 244.317 16.2759C247.133 12.0092 250.314 8.63857 255.861 6.16391C261.493 3.60391 269.651 1.8833 278.099 1.8833H293.618L301.2 18.9639H277.853C273.842 18.9639 270.557 19.4332 267.997 20.3719C265.437 21.3106 263.391 22.3391 262.281 23.8751C261.172 25.3258 260.829 25.8701 260.829 27.8327C260.829 30.1367 261.767 32.3852 263.645 33.8359C265.522 35.2012 267.997 36.3106 271.069 37.1639C274.141 38.0172 277.511 38.8706 281.181 39.7239C284.935 40.5772 288.647 41.5586 292.317 42.6679C296.071 43.7772 299.485 44.2706 302.557 46.1479C305.629 48.0252 308.103 50.4999 309.981 53.5719C311.943 56.6439 312.925 60.5266 312.925 65.2199C312.925 70.2546 311.517 74.8626 308.701 79.0439C305.885 83.2252 302.661 86.5959 297.029 89.1559C291.482 91.7159 283.442 92.9959 274.909 92.9959H250.174L243.174 76.3559H275.037Z" fill="#00D5BE"/>
</svg>
